<?xml version="1.0" standalone="no"?>
<!DOCTYPE svg PUBLIC "-//W3C//DTD SVG 1.1//EN" "http://www.w3.org/Graphics/SVG/1.1/DTD/svg11.dtd" >
<svg xmlns="http://www.w3.org/2000/svg">
<metadata>
Created by FontPrep 20130207 at Sun Dec 15 20:16:25 2013
 By Bernd Matzner
</metadata>
<defs>
<font id="0f838b43641882e729baad166da01e36" >
  <font-face 
    font-family="Franchise-Bold"
    font-weight="700"
    font-stretch="normal"
    units-per-em="2048"
    panose-1="0 0 0 9 0 0 0 0 0 0"
    ascent="1536"
    descent="-512"
    x-height="1229"
    cap-height="1434"
    bbox="-0.862275 -238 1143.48 1671"
    underline-thickness="124"
    underline-position="-106"
    unicode-range="U+0020-2212"
  />
<missing-glyph horiz-adv-x="270" 
 />
    <glyph glyph-name=".notdef" horiz-adv-x="270" 
 />
    <glyph glyph-name=".null" horiz-adv-x="0" 
 />
    <glyph glyph-name="nonmarkingreturn" horiz-adv-x="681" 
 />
    <glyph glyph-name="space" unicode=" " horiz-adv-x="270" 
 />
    <glyph glyph-name="exclam" unicode="!" horiz-adv-x="425" 
d="M82 116.5q0 53.5 39 92.5t92 39t92 -39t39 -92.5t-39 -92t-92 -38.5t-92 38.5t-39 92zM170 348q-27 0 -31 29l-45 430q-2 12 -2 17v581q0 29 29 29h184q29 0 29 -29v-293q0 -293 -2 -305l-45 -430q-4 -29 -31 -29h-86z" />
    <glyph glyph-name="quotedbl" unicode="&#x22;" horiz-adv-x="569" 
d="M348 975q-29 0 -29 29v401q0 29 29 29h154q29 0 24 -29l-73 -401q-4 -29 -33 -29h-72zM70 975q-29 0 -29 29v401q0 29 29 29h153q29 0 25 -29l-74 -401q-4 -29 -33 -29h-71z" />
    <glyph glyph-name="numbersign" unicode="#" horiz-adv-x="974" 
d="M569 803h-139l-27 -168h140zM905 635q29 0 29 -29v-65q0 -29 -29 -29h-262l-43 -274q-4 -29 -33 -29h-63q-29 0 -25 29l43 274h-139l-43 -274q-4 -29 -33 -29h-63q-29 0 -25 29l43 274h-192q-29 0 -29 29v65q0 29 29 29h213l26 168h-239q-29 0 -29 28v66q0 29 29 29h260
l43 270q4 29 33 29h63q29 0 25 -29l-43 -270h139l43 270q4 29 33 29h63q29 0 25 -29l-43 -270h194q29 0 29 -29v-66q0 -29 -29 -28h-215l-26 -168h241z" />
    <glyph glyph-name="dollar" unicode="$" horiz-adv-x="675" 
d="M395 973v133q0 20 -14 34.5t-35 14.5h-16q-20 0 -34.5 -14.5t-14.5 -34.5v-113q4 -45 30 -71l269 -201q33 -29 42 -58.5t13 -66.5v-277q0 -96 -60.5 -166.5t-152.5 -86.5v-78q0 -29 -29 -29h-110q-29 0 -29 29v78q-92 16 -152.5 86.5t-60.5 166.5v117q0 29 27 37l186 49
q27 8 27 -20v-172q0 -20 14 -34.5t35 -14.5h16q20 0 34.5 14t14.5 35v194q-4 60 -33 84l-264 203q-31 29 -44 57.5t-13 75.5v172q0 96 60.5 167t152.5 87v76q0 29 29 29h110q29 0 29 -29v-76q92 -16 152.5 -87t60.5 -167v-78q0 -29 -27 -37l-186 -49q-27 -8 -27 21z" />
    <glyph glyph-name="percent" unicode="%" horiz-adv-x="1107" 
d="M879 543q0 29 -29 28h-16q-29 0 -29 -28v-385q0 -29 29 -29h16q29 0 29 29v385zM872 715q68 0 116 -48.5t48 -115.5v-401q0 -68 -48 -116t-116 -48h-61q-68 0 -116 48t-48 116v401q0 68 48 116t116 48h61zM303 1276q0 29 -29 29h-16q-29 0 -29 -29v-385q0 -29 29 -29h16
q29 0 29 29v385zM297 1448q68 0 116 -48t48 -116v-401q0 -68 -48 -116t-116 -48h-61q-68 0 -116 48t-48 116v401q0 68 48 116t116 48h61zM158 0q-29 0 -21 27l666 1380q8 27 37 27h110q12 0 18.5 -9.5t2.5 -19.5l-666 -1378q-8 -27 -37 -27h-110z" />
    <glyph glyph-name="ampersand" unicode="&#x26;" horiz-adv-x="843" 
d="M369 680q-47 0 -47 -74v-352q0 -20 14 -34.5t35 -14.5h16q20 0 34.5 14t14.5 35v297q0 16 17 12l292 -69q16 -4 17 -21v-67q0 -16 -17 -13l-69 15v-164q0 -108 -76.5 -183t-181.5 -75h-78q-105 0 -181.5 75t-76.5 183v362q0 43 10 88q24 65 92 88q-102 41 -102 176v232
q0 106 76 182t182 76h78q106 0 182 -76t76 -182v-211q0 -29 -27 -21l-186 50q-27 8 -27 36v136q0 20 -14 34.5t-35 14.5h-16q-20 0 -34.5 -14.5t-14.5 -34.5v-238q0 -33 14 -47t33 -14h96q10 0 17 -7.5t7 -17.5v-151q0 -10 -7 -17.5t-17 -7.5h-96z" />
    <glyph glyph-name="quotesingle" unicode="'" horiz-adv-x="290" 
d="M70 975q-29 0 -29 29v401q0 29 29 29h153q29 0 25 -29l-74 -401q-4 -29 -33 -29h-71z" />
    <glyph glyph-name="parenleft" unicode="(" horiz-adv-x="481" 
d="M240 717q0 -303 55 -495q55 -193 160 -324q16 -18 -2 -37l-52 -51q-18 -18 -36 0q-174 158 -256 374q-89 220 -89 530q-1 597 345 910q18 18 36 0l52 -51q18 -18 2 -37q-107 -138 -161 -327t-54 -492z" />
    <glyph glyph-name="parenright" unicode=")" horiz-adv-x="481" 
d="M373 1249q88 -235 88 -534.5t-88 -526.5t-256 -378q-18 -18 -37 0l-51 51q-18 18 -2 37q99 128 155 317q60 218 60 501t-60 503q-56 189 -155 317q-16 18 2 37l51 51q18 18 37 0q168 -152 256 -375z" />
    <glyph glyph-name="asterisk" unicode="*" horiz-adv-x="536" 
d="M330 969q0 -29 -12 -35t-21 -6h-57q-15 0 -28.5 13.5t9.5 143.5q-122 -101 -147 -63l-29 51q-4 5 -4 19t19 24t48 25.5t64 27.5q-43 15 -87 39q-44 25 -44 37t4 21l29 51q19 19 53 3q33 -17 94 -67q-22 130 -9.5 144t28.5 14h57q8 0 20 -6q26 -13 -2 -152q64 51 96 68
t52 -4l29 -51q4 -8 4 -20t-20 -22q-68 -38 -111 -55q38 -13 110 -53q33 -20 17 -43l-29 -51q-16 -24 -53 -5t-95 68q15 -87 15 -116z" />
    <glyph glyph-name="plus" unicode="+" horiz-adv-x="897" 
d="M807 856q29 0 29 -29v-155q0 -29 -29 -29h-252v-252q0 -29 -29 -29h-155q-29 0 -29 29v252h-252q-29 0 -29 29v155q0 29 29 29h252v252q0 29 29 29h155q29 0 29 -29v-252h252z" />
    <glyph glyph-name="comma" unicode="," horiz-adv-x="362" 
d="M109 -168v31q0 2 4 7t15 5t43 17.5t42 74.5q7 27 -2 33q-8 6 -19.5 3t-43.5 -3t-70 34q-37 34 -37 87t35 90t93 37t101.5 -44.5t49 -124.5t-37.5 -157t-124 -100q-3 0 -33 -6q-16 0 -16 16z" />
    <glyph glyph-name="hyphen" unicode="-" horiz-adv-x="610" 
d="M90 643q-29 0 -29 29v155q0 29 29 29h430q29 0 29 -29v-155q0 -29 -29 -29h-430z" />
    <glyph glyph-name="period" unicode="." horiz-adv-x="344" 
d="M41 116.5q0 53.5 39 92.5t92 39t92 -39t39 -92.5t-39 -92t-92 -38.5t-92 38.5t-39 92z" />
    <glyph glyph-name="slash" unicode="/" horiz-adv-x="598" 
d="M23 0q-29 0 -21 27l426 1380q8 27 37 27h110q12 0 18.5 -9.5t2.5 -19.5l-426 -1378q-8 -27 -37 -27h-110z" />
    <glyph glyph-name="zero" unicode="0" 
d="M436 1180q0 20 -14 34.5t-35 14.5h-16q-20 0 -34.5 -14.5t-14.5 -34.5v-926q0 -20 14 -34.5t35 -14.5h16q20 0 34.5 14t14.5 35v926zM676 244q0 -108 -76.5 -183t-181.5 -75h-78q-105 0 -181.5 75t-76.5 183v946q0 106 76 182t182 76h78q106 0 182 -76t76 -182v-946z" />
    <glyph glyph-name="one" unicode="1" horiz-adv-x="577" 
d="M496 1405v-1376q0 -29 -29 -29h-182q-29 0 -29 29v1028q-77 -57 -141 -68q-13 -4 -23 3t-10 22v153q0 24 24 29q46 18 84 48q91 73 105 173q6 16 22 17h152q27 -4 27 -29z" />
    <glyph glyph-name="two" unicode="2" horiz-adv-x="759" 
d="M659 231q18 0 19 -18v-195q0 -18 -19 -18h-540q-14 0 -19 18q-17 112 2 215q11 106 81 232q117 210 245 369q10 23 8 43t0 61v242q0 20 -14 34.5t-35 14.5h-16q-20 0 -34.5 -14.5t-14.5 -34.5v-136q0 -29 -27 -36l-186 -50q-27 -8 -27 21v211q0 106 76 182t182 76h78
q106 0 182 -76t76 -182v-244q0 -135 -66 -235q-31 -49 -66.5 -100.5t-88.5 -132.5q-67 -101 -113 -247h317z" />
    <glyph glyph-name="three" unicode="3" 
d="M676 958q0 -132 -103 -176q33 -12 60 -34q18 -18 33 -54q10 -45 10 -88v-362q0 -108 -76.5 -183t-181.5 -75h-78q-105 0 -181.5 75t-76.5 183v223q0 29 27 37l186 49q27 8 27 -21v-278q0 -20 14 -34.5t35 -14.5h16q20 0 34.5 14t14.5 35v352q0 42 -11 58t-36 16h-96
q-10 0 -17.5 7t-7.5 18v151q0 10 7.5 17.5t17.5 7.5h96q19 0 33 14t14 47v238q0 20 -14 34.5t-35 14.5h-16q-20 0 -34.5 -14.5t-14.5 -34.5v-136q0 -29 -27 -36l-186 -50q-27 -8 -27 21v211q0 106 76 182t182 76h78q106 0 182 -76t76 -182v-232z" />
    <glyph glyph-name="four" unicode="4" horiz-adv-x="798" 
d="M383 512v471q-39 -206 -150 -471h150zM717 485v-170q0 -12 -10 -20t-17 -8h-65v-258q0 -29 -29 -29h-182q-29 0 -29 29v258h-317q-10 0 -18 7t-9 21v174q0 17 4 21q138 268 195 489t69 318q13 97 21 107t20 10h246q29 0 29 -29v-893h65q7 0 17 -8t10 -19z" />
    <glyph glyph-name="five" unicode="5" horiz-adv-x="759" 
d="M371 719q-49 0 -49 -62v-57q0 -10 -6.5 -16t-16.5 -2l-195 51q-23 8 -22 29v743q0 29 29 29h491q29 0 29 -29v-174q0 -29 -29 -29h-280v-309q100 48 191 23q167 -46 163 -205v-467q0 -108 -76.5 -183t-181.5 -75h-78q-105 0 -181.5 75t-76.5 183v84q0 29 27 37l186 49
q27 8 27 -21v-139q0 -20 14 -34.5t35 -14.5h16q20 0 34.5 14t14.5 35v403q0 33 -14 47t-35 15h-16z" />
    <glyph glyph-name="six" unicode="6" 
d="M322 254q0 -20 14 -34.5t35 -14.5h16q20 0 34.5 14t14.5 35v389q0 33 -14 47t-35 15h-16q-17 1 -33 -15t-16 -47v-389zM340 -14q-105 0 -181.5 75t-76.5 183v946q0 106 76 182t182 76h78q106 0 182 -76t76 -182v-84q0 -29 -27 -37l-186 -49q-27 -8 -27 20v140
q0 20 -14 34.5t-35 14.5h-16q-20 0 -34.5 -14.5t-14.5 -34.5v-301q101 48 210 18q143 -41 144 -201v-452q0 -108 -76.5 -183t-181.5 -75h-78z" />
    <glyph glyph-name="seven" unicode="7" horiz-adv-x="649" 
d="M217 0q-24 0 -27 27q0 640 68 882t86 299h-276q-12 0 -20 8t-7 19v172q0 6 8 16t19 11h501q12 0 21 -9q8 -12 8 -18v-190q-70 -188 -105 -375.5t-48 -357.5t-13 -457q0 -27 -26 -27h-189z" />
    <glyph glyph-name="eight" unicode="8" 
d="M436 1180q0 20 -14 34.5t-35 14.5h-16q-20 0 -34.5 -14.5t-14.5 -34.5v-224q0 -33 14 -47t33 -14h20q19 0 33 14t14 47v224zM369 670q-47 0 -47 -74v-342q0 -20 14 -34.5t35 -14.5h16q20 0 34.5 14t14.5 35v342q0 44 -7 52q-7 9 -14 15.5t-26 6.5h-20zM676 958
q0 -132 -103 -176q33 -12 60 -34q18 -18 33 -54q10 -45 10 -88v-362q0 -108 -76.5 -183t-181.5 -75h-78q-105 0 -181.5 75t-76.5 183v362q0 43 10 88q24 65 92 88q-102 41 -102 176v232q0 106 76 182t182 76h78q106 0 182 -76t76 -182v-232z" />
    <glyph glyph-name="nine" unicode="9" 
d="M387 729q49 0 49 62v389q0 20 -14 34.5t-35 14.5h-16q-20 0 -34.5 -14.5t-14.5 -34.5v-389q0 -62 49 -62h16zM418 1448q106 0 182 -76t76 -182v-946q0 -108 -76.5 -183t-181.5 -75h-78q-105 0 -181.5 75t-76.5 183v84q0 29 27 37l186 49q27 8 27 -21v-139q0 -20 14 -34.5
t35 -14.5h16q20 0 34.5 14t14.5 35v301q-62 -29 -118 -29q-236 0 -236 211v453q0 106 76 182t182 76h78z" />
    <glyph glyph-name="colon" unicode=":" horiz-adv-x="344" 
d="M41 444.5q0 53.5 39 92t92 38.5t92 -38.5t39 -92t-39 -92.5t-92 -39t-92 39t-39 92.5zM41 905q0 53 39 92t92 39t92 -39t39 -92t-39 -92t-92 -39t-92 39t-39 92z" />
    <glyph glyph-name="semicolon" unicode=";" horiz-adv-x="362" 
d="M41 905q0 53 39 92t92 39t92 -39t39 -92t-39 -92t-92 -39t-92 39t-39 92zM109 164v31q0 2 4 7t15 5t43 17.5t42 74.5q7 27 -2 33q-8 6 -19.5 3t-43.5 -3t-70 34q-37 34 -37 87t35 90t93 37t101.5 -44.5t47.5 -101.5t-1 -78q-17 -117 -98 -171q-39 -26 -55 -28
q-16 -3 -35 -8q-20 -5 -20 15z" />
    <glyph glyph-name="less" unicode="&#x3c;" horiz-adv-x="655" 
d="M311 717q0 -4 2 -6l258 -215q23 -18 23 -47v-201q0 -12 -6 -16t-17 4l-524 440q-6 3 -6 14v53q0 10 6 15l524 440q11 8 17 4t6 -16v-201q0 -29 -23 -47l-258 -215q-2 -2 -2 -6z" />
    <glyph glyph-name="equal" unicode="=" horiz-adv-x="720" 
d="M90 483q-29 0 -29 29v156q0 29 29 28h541q29 0 28 -28v-156q0 -29 -28 -29h-541zM90 791q-29 0 -29 28v156q0 29 29 29h541q29 0 28 -29v-156q0 -29 -28 -28h-541z" />
    <glyph glyph-name="greater" unicode="&#x3e;" horiz-adv-x="655" 
d="M61 985v201q1 12 7 16t16 -4l524 -440q6 -4 6 -15v-53q0 -11 -6 -14l-524 -440q-21 -17 -23 12v201q0 29 23 47l258 215q2 2 2 6t-2 6l-258 215q-23 18 -23 47z" />
    <glyph glyph-name="question" unicode="?" horiz-adv-x="782" 
d="M385 1217q-74 0 -74 -105v-108q0 -25 -22 -29l-195 -47q-10 -4 -16 2t-6 16v156q0 168 81.5 257t231.5 89q185 0 266 -126t62 -273.5t-62 -199t-89 -105.5t-83 -93t-54 -81t-30 -167l-2 -30q0 -23 -24 -23h-86q-23 0 -27 23q-4 49 -10 106t-7 96t15 80t42 81t60 81t58 79
t38.5 68t14.5 38v65q0 70 -14.5 110t-67.5 40zM201 116.5q0 53.5 39 92.5t92 39t92 -39t39 -92.5t-39 -92t-92 -38.5t-92 38.5t-39 92z" />
    <glyph glyph-name="at" unicode="@" horiz-adv-x="1097" 
d="M580 879q-18 0 -40 -22q-24 -22 -55.5 -81t-31.5 -115q0 -55 5 -71q14 -44 46 -27q50 25 71 111l41 153q0 18 -4 35q-6 10 -10 14t-22 3zM452 414q-71 0 -120 48.5t-51 162.5q-1 114 41 206q42 91 110 139t127 48q60 0 105 -41q12 30 28 31h127q9 0 19 -10t6 -25
l-99 -340q-2 -8 -7 -24.5t-7 -49t23 -35.5q31 -6 71 27q52 29 71 110.5t19 160.5q0 162 -94 265t-256 111q-61 2 -139 -28.5t-129 -103.5q-113 -162 -113 -353q0 -336 148.5 -404.5t231.5 -68.5q157 0 257 100q8 8 20.5 8t18.5 -8l49 -59q6 -8 4 -21.5t-10 -21.5
q-121 -121 -332 -129q-154 -7 -286 81q-244 161 -244 527q0 260 151.5 438t372.5 178q233 0 362 -167q130 -167 130 -354t-91.5 -300t-213.5 -113q-121 0 -158 93q-10 -10 -40.5 -44t-101.5 -34z" />
    <glyph glyph-name="A" unicode="A" horiz-adv-x="729" 
d="M412 479l-39 555h-17l-39 -555h95zM662 0h-187q-27 0 -31 29l-16 221h-127l-16 -221q-4 -29 -31 -29h-186q-29 0 -25 29l154 1376q4 29 32 29h271q29 0 32 -29l154 -1376q4 -29 -24 -29z" />
    <glyph glyph-name="B" unicode="B" horiz-adv-x="747" 
d="M446 1165q0 20 -14 34.5t-35 14.5h-65v-348h65q20 0 34.5 14.5t14.5 34.5v250zM446 594q0 20 -14 34.5t-35 14.5h-65v-424h65q20 0 34.5 14.5t14.5 34.5v326zM686 561v-303q0 -106 -76 -182t-182 -76h-307q-29 0 -29 29v1376q0 29 29 29h307q106 0 182 -76t76 -182v-205
q0 -150 -131 -211q131 -49 131 -199z" />
    <glyph glyph-name="C" unicode="C" horiz-adv-x="727" 
d="M408 1448q106 0 182 -76t76 -182v-164q0 -29 -27 -37l-186 -28q-27 -8 -27 20v199q0 20 -14.5 34.5t-34.5 14.5h-17q-20 0 -34.5 -14.5t-14.5 -34.5v-926q0 -20 14.5 -34.5t34.5 -14.5h17q20 0 34.5 14t14.5 35v287q0 29 27 20l186 -24q27 -8 27 -37v-256
q0 -108 -76.5 -183t-181.5 -75h-78q-107 0 -182.5 75.5t-75.5 182.5v946q0 105 75 181.5t183 76.5h78z" />
    <glyph glyph-name="D" unicode="D" 
d="M446 1165q0 20 -14 34.5t-35 14.5h-65v-995h65q20 0 34.5 14.5t14.5 34.5v897zM428 1434q106 0 182 -76t76 -182v-918q0 -106 -76 -182t-182 -76h-307q-29 0 -29 29v1376q0 29 29 29h307z" />
    <glyph glyph-name="E" unicode="E" horiz-adv-x="675" 
d="M565 240q29 0 29 -29v-182q0 -29 -29 -29h-444q-29 0 -29 29v1376q0 29 29 29h444q29 0 29 -29v-182q0 -29 -29 -29h-233v-295h203q29 0 28 -29v-182q0 -29 -28 -29h-203v-419h233z" />
    <glyph glyph-name="F" unicode="F" horiz-adv-x="655" 
d="M565 1434q29 0 29 -29v-182q0 -29 -29 -29h-233v-295h203q29 0 28 -29v-182q0 -29 -28 -29h-203v-630q0 -29 -29 -29h-182q-29 0 -29 29v1376q0 29 29 29h444z" />
    <glyph glyph-name="G" unicode="G" horiz-adv-x="737" 
d="M408 1448q106 0 182 -76t76 -182v-66q0 -29 -27 -37l-186 -67q-27 -8 -27 20v140q0 20 -14.5 34.5t-34.5 14.5h-17q-20 0 -34.5 -14.5t-14.5 -34.5v-926q0 -20 14.5 -34.5t34.5 -14.5h17q20 0 34.5 14t14.5 35v364h-57v234h268q29 0 29 -29v-579q0 -108 -76.5 -183
t-181.5 -75h-78q-107 0 -182.5 75.5t-75.5 182.5v946q0 105 75 181.5t183 76.5h78z" />
    <glyph glyph-name="H" unicode="H" horiz-adv-x="798" 
d="M678 1434q29 0 29 -29v-1376q0 -29 -29 -29h-182q-29 0 -29 29v585h-135v-585q0 -29 -29 -29h-182q-29 0 -29 29v1376q0 29 29 29h182q29 0 29 -29v-551h135v551q0 29 29 29h182z" />
    <glyph glyph-name="I" unicode="I" horiz-adv-x="423" 
d="M332 29q0 -29 -29 -29h-182q-29 0 -29 29v1376q0 29 29 29h182q29 0 29 -29v-1376z" />
    <glyph glyph-name="J" unicode="J" horiz-adv-x="727" 
d="M616 1434q29 0 29 -29v-1161q0 -107 -75.5 -182.5t-182.5 -75.5h-78q-105 0 -181.5 75t-76.5 183v260q0 29 27 37l186 49q27 8 27 -21v-315q0 -20 14 -34.5t35 -14.5h16q20 0 35 14t15 35v1151q0 29 28 29h182z" />
    <glyph glyph-name="K" unicode="K" horiz-adv-x="825" 
d="M764 1434q12 0 16 -9.5t0 -19.5l-274 -604l270 -772q4 -10 -2 -19.5t-18 -9.5h-203q-28 0 -37 25l-149 462l-35 -86v-372q0 -29 -29 -29h-182q-29 0 -29 29v1376q0 29 29 29h182q29 0 29 -29v-440l188 444q10 25 39 25h205z" />
    <glyph glyph-name="L" unicode="L" horiz-adv-x="675" 
d="M596 240q29 0 29 -29v-182q0 -29 -29 -29h-465q-29 0 -29 29v1376q0 29 29 29h182q29 0 29 -29v-1165h254z" />
    <glyph glyph-name="M" unicode="M" horiz-adv-x="983" 
d="M862 1434q29 0 29 -29v-1376q0 -29 -29 -29h-196q-29 0 -29 29v647l-135 -529q-4 -10 -10.5 -10t-10.5 10l-135 529v-647q0 -29 -29 -29h-196q-29 0 -29 29v1376q0 29 29 29h174q23 0 35 -29l162 -733l161 733q12 29 35 29h174z" />
    <glyph glyph-name="N" unicode="N" horiz-adv-x="839" 
d="M719 1434q29 0 29 -29v-1376q0 -29 -29 -29h-131q-29 0 -39 27l-217 678v-676q0 -29 -29 -29h-182q-29 0 -29 29v1376q0 29 29 29h135q12 0 23.5 -8.5t15.5 -18.5l213 -657v655q0 29 29 29h182z" />
    <glyph glyph-name="O" unicode="O" horiz-adv-x="737" 
d="M426 1180q0 20 -14.5 34.5t-34.5 14.5h-17q-20 0 -34.5 -14.5t-14.5 -34.5v-926q0 -20 14.5 -34.5t34.5 -14.5h17q20 0 34.5 14t14.5 35v926zM666 244q0 -108 -76.5 -183t-181.5 -75h-78q-107 0 -182.5 75.5t-75.5 182.5v946q0 105 75 181.5t183 76.5h78q106 0 182 -76
t76 -182v-946z" />
    <glyph glyph-name="P" unicode="P" horiz-adv-x="727" 
d="M446 1165q0 20 -14 34.5t-35 14.5h-65v-411h65q20 0 34.5 14t14.5 35v313zM428 1434q106 0 182 -76t76 -182v-334q0 -108 -76.5 -183t-181.5 -75h-96v-555q0 -29 -29 -29h-182q-29 0 -29 29v1376q0 29 29 29h307z" />
    <glyph glyph-name="Q" unicode="Q" horiz-adv-x="745" 
d="M311 254q0 -20 14.5 -34.5t34.5 -14.5h17q20 0 34.5 14t14.5 35v926q0 20 -14.5 34.5t-34.5 14.5h-17q-20 0 -34.5 -14.5t-14.5 -34.5v-926zM666 244q0 -120 -86 -193l88 -133q6 -10 3 -21.5t-14 -15.5l-141 -63q-29 -12 -45 12l-104 156h-37q-107 0 -182.5 75.5
t-75.5 182.5v946q0 105 75 181.5t183 76.5h78q106 0 182 -76t76 -182v-946z" />
    <glyph glyph-name="R" unicode="R" horiz-adv-x="770" 
d="M330 803h65q20 0 34.5 14t14.5 35v313q0 20 -14 34.5t-35 14.5h-65v-411zM705 0h-187q-30 0 -39 29l-149 501v-510q-6 -20 -29 -20h-182q-29 0 -29 29v1376q0 29 29 29h307q106 0 182 -76t76 -182v-334q0 -76 -39 -136.5t-102 -93.5l182 -583q6 -29 -20 -29z" />
    <glyph glyph-name="S" unicode="S" horiz-adv-x="716" 
d="M397 1448q108 0 183 -76.5t75 -181.5v-78q0 -29 -26 -37l-187 -49q-27 -8 -26 21v133q0 20 -14.5 34.5t-34.5 14.5h-17q-20 0 -34.5 -14.5t-14.5 -34.5v-187q4 -46 31 -71l268 -201q33 -29 42 -58.5t13 -66.5v-352q0 -107 -75.5 -182.5t-182.5 -75.5h-78
q-105 0 -181.5 75t-76.5 183v196q0 29 27 37l186 49q27 8 27 -20v-252q0 -20 14.5 -34.5t34.5 -14.5h17q20 0 34.5 14t14.5 35v270q-4 59 -33 84l-264 203q-31 29 -44.5 57.5t-13.5 75.5v246q0 106 76 182t182 76h78z" />
    <glyph glyph-name="T" unicode="T" horiz-adv-x="688" 
d="M608 1434q29 0 29 -29v-182q0 -29 -29 -29h-145v-1165q0 -29 -29 -29h-182q-10 0 -19.5 8t-9.5 21v1165h-143q-29 0 -29 29v182q0 29 29 29h528z" />
    <glyph glyph-name="U" unicode="U" horiz-adv-x="737" 
d="M637 1434q29 0 29 -29v-1161q0 -108 -76.5 -183t-181.5 -75h-78q-107 0 -182.5 75.5t-75.5 182.5v1161q0 29 28 29h183q29 0 28 -29v-1151q0 -20 14.5 -34.5t34.5 -14.5h17q20 0 34.5 14t14.5 35v1151q0 29 29 29h182z" />
    <glyph glyph-name="V" unicode="V" horiz-adv-x="774" 
d="M727 1434q29 0 25 -29l-242 -1376q-4 -29 -33 -29h-180q-29 0 -33 29l-241 1376q-4 29 24 29h221q27 0 31 -29l84 -868h8l84 868q4 29 31 29h221z" />
    <glyph glyph-name="W" unicode="W" horiz-adv-x="1165" 
d="M1118 1434q29 0 25 -29l-242 -1376q-4 -29 -33 -29h-180q-29 0 -33 29l-71 510h-2l-72 -510q-4 -29 -33 -29h-180q-29 0 -33 29l-241 1376q-4 29 24 29h221q27 0 31 -29l92 -836h8l70 836q4 29 31 29h166q27 0 30 -29l70 -836h8l92 836q4 29 31 29h221z" />
    <glyph glyph-name="X" unicode="X" horiz-adv-x="774" 
d="M688 0h-190q-29 0 -33 29l-78 405l-78 -405q-4 -29 -33 -29h-190q-12 0 -19.5 8t-3.5 21l168 690l-168 686q-4 10 3.5 19.5t19.5 9.5h190q29 0 33 -29l78 -406l78 406q4 29 33 29h190q12 0 19.5 -9.5t3.5 -19.5l-168 -686l168 -690q6 -29 -23 -29z" />
    <glyph glyph-name="Y" unicode="Y" 
d="M715 1434q12 0 18 -9.5t2 -19.5l-235 -848v-528q0 -29 -29 -29h-184q-29 0 -29 29v528l-235 848q-4 10 2 19.5t18 9.5h217q29 0 33 -29l82 -516h8l82 516q4 29 33 29h217z" />
    <glyph glyph-name="Z" unicode="Z" horiz-adv-x="722" 
d="M633 229q29 0 29 -28v-172q0 -29 -29 -29h-543q-12 0 -19.5 8t-2.5 21l284 1175h-262q-29 0 -29 29v172q0 29 29 29h539q12 0 19 -9.5t3 -19.5l-284 -1176h266z" />
    <glyph glyph-name="bracketleft" unicode="[" horiz-adv-x="471" 
d="M225 1475v-1516h197q29 0 29 -29v-139q0 -29 -29 -29h-373q-29 0 -29 29v1851q0 29 29 29h373q29 0 29 -29v-139q0 -29 -29 -28h-197z" />
    <glyph glyph-name="backslash" unicode="\" horiz-adv-x="598" 
d="M465 0q-29 0 -37 27l-426 1378q-4 10 2 19.5t19 9.5h110q29 0 37 -27l426 -1380q8 -27 -21 -27h-110z" />
    <glyph glyph-name="bracketright" unicode="]" horiz-adv-x="471" 
d="M49 1475q-29 0 -29 28v139q0 29 29 29h373q29 0 29 -29v-1851q0 -29 -29 -29h-373q-29 0 -29 29v139q0 29 29 29h197v1516h-197z" />
    <glyph glyph-name="asciicircum" unicode="^" horiz-adv-x="569" 
d="M541 1092h-129q-16 0 -23 10l-104 143l-105 -143q-10 -10 -22 -10h-129q-19 0 -25 15t4 30l254 286q6 10 21 11h4q10 0 20 -11l254 -286q10 -13 5 -29t-25 -16z" />
    <glyph glyph-name="underscore" unicode="_" horiz-adv-x="856" 
d="M70 -184q-29 0 -29 28v127q0 29 29 29h716q29 0 29 -29v-127q0 -29 -29 -28h-716z" />
    <glyph glyph-name="a" unicode="a" horiz-adv-x="729" 
d="M412 459l-39 452h-17l-39 -452h95zM662 0h-187q-27 0 -31 29l-16 200h-127l-16 -200q-4 -29 -31 -29h-186q-29 0 -25 29l154 1171q4 29 32 29h271q29 0 32 -29l154 -1171q4 -29 -24 -29z" />
    <glyph glyph-name="b" unicode="b" horiz-adv-x="747" 
d="M446 961q0 20 -14 34.5t-35 14.5h-65v-279h65q20 0 34.5 14.5t14.5 34.5v181zM446 459q0 20 -14 34.5t-35 14.5h-65v-289h65q20 0 34.5 14.5t14.5 34.5v191zM686 426v-168q0 -106 -76 -182t-182 -76h-301q-12 0 -23.5 3t-11.5 26v1171q0 29 29 29h307q106 0 182 -76
t76 -182v-135q0 -150 -131 -211q131 -49 131 -199z" />
    <glyph glyph-name="c" unicode="c" horiz-adv-x="727" 
d="M408 1243q105 0 181.5 -75t76.5 -183v-123q0 -29 -27 -37l-186 -28q-27 -8 -27 20v158q0 20 -14.5 34.5t-34.5 14.5h-17q-20 0 -34.5 -14.5t-14.5 -34.5v-721q0 -20 14.5 -34.5t34.5 -14.5h17q20 0 34.5 14t14.5 35v246q0 29 27 20l186 -24q27 -8 27 -37v-215
q0 -108 -76.5 -183t-181.5 -75h-78q-107 0 -182.5 75.5t-75.5 182.5v741q0 107 75.5 182.5t182.5 75.5h78z" />
    <glyph glyph-name="d" unicode="d" 
d="M446 961q0 20 -14 34.5t-35 14.5h-65v-791h65q20 0 34.5 14.5t14.5 34.5v693zM428 1229q106 0 182 -76t76 -182v-713q0 -106 -76 -182t-182 -76h-307q-29 0 -29 29v1171q0 29 29 29h307z" />
    <glyph glyph-name="e" unicode="e" horiz-adv-x="675" 
d="M565 240q29 0 29 -29v-182q0 -29 -29 -29h-444q-29 0 -29 29v1171q0 29 29 29h444q29 0 29 -29v-182q0 -29 -29 -29h-233v-233h203q29 0 28 -29v-182q0 -29 -28 -29h-203v-276h233z" />
    <glyph glyph-name="f" unicode="f" horiz-adv-x="655" 
d="M565 1229q29 0 29 -29v-182q0 -29 -29 -29h-233v-233h203q29 0 28 -29v-182q0 -29 -28 -29h-203v-487q0 -29 -29 -29h-182q-29 0 -29 29v1171q0 29 29 29h444z" />
    <glyph glyph-name="g" unicode="g" horiz-adv-x="737" 
d="M408 1243q105 0 181.5 -75t76.5 -183v-45q0 -29 -27 -37l-186 -67q-27 -8 -27 20v119q0 20 -14.5 34.5t-34.5 14.5h-17q-20 0 -34.5 -14.5t-14.5 -34.5v-721q0 -20 14.5 -34.5t34.5 -14.5h17q20 0 34.5 14t14.5 35v221h-57v234h268q29 0 29 -29v-436q0 -108 -76.5 -183
t-181.5 -75h-78q-107 0 -182.5 75.5t-75.5 182.5v741q0 107 75.5 182.5t182.5 75.5h78z" />
    <glyph glyph-name="h" unicode="h" horiz-adv-x="798" 
d="M678 1229q29 0 29 -29v-1171q0 -29 -29 -29h-182q-29 0 -29 29v463h-135v-463q0 -29 -29 -29h-182q-29 0 -29 29v1171q0 29 29 29h182q29 0 29 -29v-469h135v469q0 29 29 29h182z" />
    <glyph glyph-name="i" unicode="i" horiz-adv-x="423" 
d="M332 29q0 -29 -29 -29h-182q-29 0 -29 29v1171q0 29 29 29h182q29 0 29 -29v-1171z" />
    <glyph glyph-name="j" unicode="j" horiz-adv-x="727" 
d="M616 1229q29 0 29 -29v-956q0 -107 -75.5 -182.5t-182.5 -75.5h-78q-105 0 -181.5 75t-76.5 183v219q0 29 27 37l186 49q27 8 27 -21v-274q0 -20 14 -34.5t35 -14.5h16q20 0 35 14t15 35v946q0 29 28 29h182z" />
    <glyph glyph-name="k" unicode="k" horiz-adv-x="825" 
d="M764 1229q12 0 16 -9.5t0 -19.5l-278 -522l274 -649q4 -10 -2 -19.5t-18 -9.5h-203q-28 0 -37 25l-149 340l-35 -66v-270q0 -29 -29 -29h-182q-29 0 -29 29v1171q0 29 29 29h182q29 0 29 -29v-358l188 362q10 25 39 25h205z" />
    <glyph glyph-name="l" unicode="l" horiz-adv-x="675" 
d="M596 240q29 0 29 -29v-182q0 -29 -29 -29h-465q-29 0 -29 29v1171q0 29 29 29h182q29 0 29 -29v-960h254z" />
    <glyph glyph-name="m" unicode="m" horiz-adv-x="983" 
d="M862 1229q29 0 29 -29v-1171q0 -29 -29 -29h-196q-29 0 -29 29v544l-135 -487q-4 -10 -10.5 -10t-10.5 10l-135 487v-544q0 -29 -29 -29h-196q-29 0 -29 29v1171q0 29 29 29h174q23 0 35 -29l162 -631l161 631q12 29 35 29h174z" />
    <glyph glyph-name="n" unicode="n" horiz-adv-x="839" 
d="M719 1229q29 0 29 -29v-1171q0 -29 -29 -29h-131q-29 0 -39 27l-217 534v-532q0 -29 -29 -29h-182q-29 0 -29 29v1171q0 29 29 29h135q12 0 23.5 -8.5t15.5 -18.5l213 -596v594q0 29 29 29h182z" />
    <glyph glyph-name="o" unicode="o" horiz-adv-x="737" 
d="M426 975q0 20 -14.5 34.5t-34.5 14.5h-17q-20 0 -34.5 -14.5t-14.5 -34.5v-721q0 -20 14.5 -34.5t34.5 -14.5h17q20 0 34.5 14t14.5 35v721zM666 244q0 -108 -76.5 -183t-181.5 -75h-78q-107 0 -182.5 75.5t-75.5 182.5v741q0 107 75.5 182.5t182.5 75.5h78
q105 0 181.5 -75t76.5 -183v-741z" />
    <glyph glyph-name="p" unicode="p" horiz-adv-x="727" 
d="M446 961q0 20 -14 34.5t-35 14.5h-65v-351h65q20 0 34.5 14.5t14.5 35.5v252zM428 1229q106 0 182 -76t76 -182v-273q0 -106 -76 -182t-182 -76h-96v-411q0 -29 -29 -29h-182q-29 0 -29 29v1171q0 29 29 29h307z" />
    <glyph glyph-name="q" unicode="q" horiz-adv-x="745" 
d="M311 254q0 -20 14.5 -34.5t34.5 -14.5h17q20 0 34.5 14t14.5 35v721q0 20 -14.5 34.5t-34.5 14.5h-17q-20 0 -34.5 -14.5t-14.5 -34.5v-721zM666 244q0 -120 -86 -193l88 -133q6 -10 3 -21.5t-14 -15.5l-141 -63q-29 -12 -45 12l-104 156h-37q-107 0 -182.5 75.5
t-75.5 182.5v741q0 107 75.5 182.5t182.5 75.5h78q105 0 181.5 -75t76.5 -183v-741z" />
    <glyph glyph-name="r" unicode="r" horiz-adv-x="770" 
d="M332 680h65q20 0 34.5 14.5t14.5 34.5v232q0 20 -14 34.5t-35 14.5h-65v-330zM332 29q0 -29 -31 -29h-182q-27 0 -27 29v1171q0 29 29 29h307q106 0 182 -76t76 -182v-252q0 -76 -45 -136.5t-109 -93.5l195 -460q6 -29 -20 -29h-187q-30 0 -39 29l-149 379v-379z" />
    <glyph glyph-name="s" unicode="s" horiz-adv-x="716" 
d="M397 1243q107 0 182.5 -75.5t75.5 -182.5v-78q0 -29 -26 -37l-187 -49q-27 -8 -26 21v133q0 20 -14.5 34.5t-34.5 14.5h-17q-20 0 -34.5 -14.5t-14.5 -34.5v-125q4 -45 31 -72l268 -200q33 -29 42 -59t13 -66v-209q0 -107 -75.5 -182.5t-182.5 -75.5h-78
q-105 0 -181.5 75t-76.5 183v114q0 29 27 37l186 49q27 8 27 -20v-170q0 -20 14.5 -34.5t34.5 -14.5h17q20 0 34.5 14t14.5 35v127q-4 59 -33 84l-264 203q-31 29 -44.5 57.5t-13.5 75.5v184q0 108 76.5 183t181.5 75h78z" />
    <glyph glyph-name="t" unicode="t" horiz-adv-x="688" 
d="M608 1229q29 0 29 -29v-182q0 -29 -29 -29h-145v-960q0 -29 -29 -29h-182q-10 0 -19.5 8t-9.5 21v960h-143q-29 0 -29 29v182q0 29 29 29h528z" />
    <glyph glyph-name="u" unicode="u" horiz-adv-x="737" 
d="M637 1229q29 0 29 -29v-956q0 -108 -76.5 -183t-181.5 -75h-78q-107 0 -182.5 75.5t-75.5 182.5v956q0 29 28 29h183q29 0 28 -29v-946q0 -20 14.5 -34.5t34.5 -14.5h17q20 0 34.5 14t14.5 35v946q0 29 29 29h182z" />
    <glyph glyph-name="v" unicode="v" horiz-adv-x="774" 
d="M727 1229q29 0 25 -29l-242 -1171q-4 -29 -33 -29h-180q-29 0 -33 29l-241 1171q-4 29 24 29h221q27 0 31 -29l84 -766h8l84 766q4 29 31 29h221z" />
    <glyph glyph-name="w" unicode="w" horiz-adv-x="1124" 
d="M1077 1229q29 0 25 -29l-221 -1171q-4 -29 -33 -29h-180q-29 0 -33 29l-72 428h-2l-72 -428q-4 -29 -32 -29h-181q-29 0 -32 29l-221 1171q-4 29 24 29h221q27 0 31 -29l72 -692h8l78 692q4 29 30 29h150q27 0 31 -29l77 -692h9l71 692q4 29 31 29h221z" />
    <glyph glyph-name="x" unicode="x" horiz-adv-x="774" 
d="M688 0h-190q-29 0 -33 29l-78 303l-78 -303q-4 -29 -33 -29h-190q-12 0 -19.5 8t-3.5 21l168 587l-168 584q-4 10 3.5 19.5t19.5 9.5h190q29 0 33 -29l78 -303l78 303q4 29 33 29h190q12 0 19.5 -9.5t3.5 -19.5l-168 -584l168 -587q6 -29 -23 -29z" />
    <glyph glyph-name="y" unicode="y" 
d="M715 1229q12 0 18 -9.5t2 -19.5l-235 -725v-446q0 -29 -29 -29h-184q-29 0 -29 29v446l-235 725q-4 10 2 19.5t18 9.5h217q29 0 33 -29l82 -393h8l82 393q4 29 33 29h217z" />
    <glyph glyph-name="z" unicode="z" horiz-adv-x="722" 
d="M633 229q29 0 29 -28v-172q0 -29 -29 -29h-543q-12 0 -19.5 8t-2.5 21l284 970h-262q-29 0 -29 29v172q0 29 29 29h539q12 0 19 -9.5t3 -19.5l-284 -971h266z" />
    <glyph glyph-name="braceleft" unicode="{" horiz-adv-x="606" 
d="M82 768q0 31 31 31h59q48 -4 70 16.5t25 42.5t-5 46t-20.5 48.5t-63.5 113t-58 223.5t79 224q65 65 147 84q127 26 162 -4q16 -12 16 -32v-117q0 -12 -8 -20.5t-22 -8.5h-68q-58 0 -96 -50.5t47 -230t88 -242.5q2 -62 -20.5 -109.5t-94.5 -65.5q120 -33 115 -162
q-3 -82 -68.5 -217t-71.5 -209q-8 -107 101 -111h68q30 0 30 -28v-117q0 -55 -118.5 -48t-204.5 93q-130 132 -78 289t79 202.5t57.5 105t-4.5 92t-83 28.5h-59q-31 0 -31 31v102z" />
    <glyph glyph-name="bar" unicode="|" horiz-adv-x="327" 
d="M111 -195q-29 0 -29 29v1765q0 29 29 29h106q29 0 29 -29v-1765q0 -29 -29 -29h-106z" />
    <glyph glyph-name="braceright" unicode="}" horiz-adv-x="606" 
d="M82 -10q0 28 31 28h67q58 0 96 52.5t-47 227.5t-88 241q-2 65 20.5 111t94.5 67q-120 30 -115 162q3 78 88 255t48 229t-97 52h-67q-14 0 -22.5 8.5t-8.5 20.5v117q0 31 31 41q99 24 209 -25q96 -53 133 -127t33 -148q-9 -156 -82 -277t-68 -155q10 -77 96 -71h60
q30 0 30 -31v-102q0 -31 -30 -31h-60q-48 4 -70 -16.5t-25 -42.5t5 -47t20.5 -49.5t63.5 -109t58 -223.5t-77 -227q-85 -89 -206 -95.5t-121 48.5v117z" />
    <glyph glyph-name="cent" unicode="&#xa2;" horiz-adv-x="737" 
d="M426 881v94q0 20 -14.5 34.5t-34.5 14.5h-17q-20 0 -34.5 -14.5t-14.5 -34.5v-508q0 -20 14.5 -34.5t34.5 -14.5h17q20 0 34.5 14t14.5 35v186q0 29 27 21l186 -25q27 -8 27 -37v-155q0 -96 -60.5 -167t-152.5 -87v-174q0 -29 -29 -29h-111q-29 0 -28 29v174
q-92 16 -152.5 86.5t-60.5 167.5v528q0 96 60.5 167t152.5 87v166q0 29 28 29h111q29 0 29 -29v-166q92 -16 152.5 -87t60.5 -167v-59q0 -29 -27 -37l-186 -29q-27 -8 -27 21z" />
    <glyph glyph-name="sterling" unicode="&#xa3;" horiz-adv-x="911" 
d="M539 207q20 0 34.5 14.5t14.5 34.5v139q0 29 26 21l187 -49q27 -8 26 -37v-84q0 -112 -70.5 -186t-185.5 -74q-10 -2 -27 2t-43 10t-80 27t-131 18q-77 -2 -135.5 -17.5t-74.5 -23.5l-29 -12q-28 -14 -29.5 5t63.5 95q66 76 118 201q19 50 22.5 89.5t5.5 55.5t2 39v195
h-53q-14 0 -14 14v92q0 14 14 15h53v399q0 106 76 182t183 76h77q108 0 183 -76.5t75 -181.5v-146q0 -29 -26 -36l-187 -50q-27 -8 -26 21v201q0 20 -14.5 34.5t-34.5 14.5h-17q-20 0 -34.5 -14.5t-14.5 -34.5v-389h195q14 0 14 -15v-92q0 -14 -14 -14h-195v-215
q0 -123 -65 -217l-7 -7q79 -14 123 -24h15z" />
    <glyph glyph-name="copyright" unicode="&#xa9;" horiz-adv-x="532" 
d="M276 1378q29 0 47.5 -18.5t18.5 -46.5v-43q0 -8 -6 -8l-49 -9q-6 -4 -6 7v51q0 12 -13 12h-4q-12 0 -12 -12v-174q0 -12 12 -13h4q12 0 13 13v57q0 6 6 6l49 -8q6 -4 6 -8v-49q0 -29 -18.5 -47.5t-47.5 -18.5h-20q-29 0 -47.5 18.5t-18.5 47.5v178q0 29 18.5 47t47.5 18
h20zM266 1038q78 0 131.5 53.5t53.5 131t-53.5 131t-131.5 53.5t-131 -53.5t-53 -131t53 -131t131 -53.5zM266 1448q47 0 88 -17.5t72 -48t48.5 -71.5t17.5 -88t-17.5 -88t-48.5 -72t-72 -48.5t-88 -17.5t-88 17.5t-71.5 48.5t-48 72t-17.5 88t17.5 88t48 71.5t71.5 48
t88 17.5z" />
    <glyph glyph-name="registered" unicode="&#xae;" horiz-adv-x="532" 
d="M266 1038q78 0 131.5 53.5t53.5 131t-53.5 131t-131.5 53.5t-131 -53.5t-53 -131t53 -131t131 -53.5zM266 1448q47 0 88 -17.5t72 -48t48.5 -71.5t17.5 -88t-17.5 -88t-48.5 -72t-72 -48.5t-88 -17.5t-88 17.5t-71.5 48.5t-48 72t-17.5 88t17.5 88t48 71.5t71.5 48
t88 17.5zM283 1303q0 12 -13 12h-16v-62h16q12 0 13 13v37zM336 1268q0 -43 -37 -56l47 -125q2 -6 -4 -6h-47q-6 0 -8 6l-33 105v-107q0 -4 -6 -4h-39q-6 0 -6 6v275q0 8 6 8h67q27 0 43.5 -19.5t16.5 -45.5v-37z" />
    <glyph glyph-name="degree" unicode="&#xb0;" horiz-adv-x="344" 
d="M172 1253q33 0 55.5 22.5t22.5 55.5t-22.5 55.5t-55.5 22.5t-55.5 -22.5t-22.5 -55.5t22.5 -55.5t55.5 -22.5zM172 1462q53 0 92 -39t39 -92t-39 -92t-92 -39t-92 39t-39 92t39 92t92 39z" />
    <glyph glyph-name="paragraph" unicode="&#xb6;" horiz-adv-x="985" 
d="M436 1214h-65q-20 0 -34.5 -14t-14.5 -35v-313q0 -20 14 -34.5t35 -14.5h65v411zM874 1434q29 0 29 -29v-1376q0 -29 -29 -29h-92q-29 0 -28 29v1185h-78v-1185q0 -29 -29 -29h-182q-29 0 -29 29v555h-96q-105 0 -181.5 75t-76.5 183v334q0 106 76 182t182 76h534z" />
    <glyph glyph-name="questiondown" unicode="&#xbf;" horiz-adv-x="782" 
d="M397 217q74 0 74 105v108q0 20 23 29l194 47q23 4 23 -19v-155q0 -168 -82 -257t-232 -89q-189 0 -263.5 120.5t-62 270t57.5 204t91 108.5t82 93t54 81t31 167l2 31q0 22 25 22h86q23 0 26 -22l9 -90q4 -35 5 -66t3 -59t-14.5 -68.5t-42 -80.5t-60 -81t-58.5 -79
t-38.5 -68.5t-14.5 -38.5v-63q0 -70 14.5 -110t67.5 -40zM582 1317q0 -53 -39 -92t-92.5 -39t-92.5 39t-39 92t39 92t92.5 39t92.5 -39t39 -92z" />
    <glyph glyph-name="multiply" unicode="&#xd7;" horiz-adv-x="727" 
d="M717 551q0 -12 -8 -21l-111 -110q-8 -8 -20 -8t-21 8l-178 178l-178 -178q-9 -8 -21 -8t-20 8l-111 110q-8 8 -8 20t8 21l178 179l-178 178q-8 8 -8 20t8 21l111 110q8 8 20 8t21 -8l178 -178l178 178q9 8 21 8t20 -8l111 -110q8 -9 8 -21t-8 -20l-179 -178l179 -179
q8 -8 8 -20z" />
    <glyph glyph-name="divide" unicode="&#xf7;" horiz-adv-x="897" 
d="M448.5 924q-53.5 0 -92.5 38.5t-39 92t39 92.5t92.5 39t92.5 -39t39 -92.5t-39 -92t-92.5 -38.5zM448.5 575q53.5 0 92.5 -38.5t39 -92t-39 -92.5t-92.5 -39t-92.5 39t-39 92.5t39 92t92.5 38.5zM807 856q29 0 29 -29v-155q0 -29 -29 -29h-717q-29 0 -29 29v155
q0 29 29 29h717z" />
    <glyph glyph-name="endash" unicode="&#x2013;" horiz-adv-x="720" 
d="M90 643q-29 0 -29 29v155q0 29 29 29h541q29 0 28 -29v-155q0 -29 -28 -29h-541z" />
    <glyph glyph-name="emdash" unicode="&#x2014;" horiz-adv-x="897" 
d="M90 643q-29 0 -29 29v155q0 29 29 29h717q29 0 29 -29v-155q0 -29 -29 -29h-717z" />
    <glyph glyph-name="quoteleft" unicode="&#x2018;" horiz-adv-x="280" 
d="M213 1432v-31q0 -12 -11 -12q-25 0 -55.5 -21t-37.5 -72q-6 -26 2 -32t19 -3t42 3t72 -35q37 -35 37 -87t-35 -89t-95 -37t-103 45.5t-48.5 167.5t72.5 165.5t92 47.5l33 6q16 0 16 -16z" />
    <glyph glyph-name="quoteright" unicode="&#x2019;" horiz-adv-x="280" 
d="M68 1032v31q0 2 4 7t15 5t43 17.5t42 74.5q7 27 -2 33q-8 6 -19.5 3t-42.5 -3t-70 34q-38 34 -38 87t35 90t94 37t101.5 -44.5t48 -124.5t-30 -144t-77.5 -87t-87 -32q-16 0 -16 16z" />
    <glyph glyph-name="quotesinglbase" unicode="&#x201a;" horiz-adv-x="444" 
d="M150 -168v31q0 2 4 7t15 5t43 17.5t42 74.5q7 27 -2 33q-8 6 -19.5 3t-43.5 -3t-70 34q-37 34 -37 87t35 90t93 37t102.5 -45.5t48 -126t-38.5 -156t-123 -98.5q-3 0 -33 -6q-16 0 -16 16z" />
    <glyph glyph-name="quotedblleft" unicode="&#x201c;" horiz-adv-x="624" 
d="M213 1432v-31q0 -12 -11 -12q-25 0 -55.5 -21t-37.5 -72q-6 -26 2 -32t19 -3t42 3t72 -35q37 -35 37 -87t-35 -89t-95 -37t-103 45.5t-48.5 167.5t72.5 165.5t92 47.5l33 6q16 0 16 -16zM557 1432v-31q0 -12 -11 -12q-25 0 -55.5 -21t-37.5 -72q-6 -26 2 -32t19 -3t42 3
t72 -35q37 -35 37 -87t-35 -89t-95 -37t-103 45.5t-48.5 167.5t72.5 165.5t92 47.5l33 6q16 0 16 -16z" />
    <glyph glyph-name="quotedblright" unicode="&#x201d;" horiz-adv-x="624" 
d="M412 1032v31q0 2 4 7t15 5t43 17.5t42 74.5q7 27 -2 33q-8 6 -19.5 3t-42.5 -3t-70 34q-38 34 -38 87t35 90t94 37t101.5 -44.5t51 -166.5t-72 -167t-125.5 -54q-16 0 -16 16zM68 1032v31q0 2 4 7t15 5t43 17.5t42 74.5q7 27 -2 33q-8 6 -19.5 3t-42.5 -3t-70 34
q-38 34 -38 87t35 90t94 37t101.5 -44.5t48 -124.5t-30 -144t-77.5 -87t-87 -32q-16 0 -16 16z" />
    <glyph glyph-name="quotedblbase" unicode="&#x201e;" horiz-adv-x="706" 
d="M453 -168v31q0 2 4 7t15 5t43 17.5t42 74.5q7 27 -2 33q-8 6 -19.5 3t-43.5 -3t-70 34q-37 34 -37 87t35 90t93 37t101.5 -44.5t49.5 -125.5t-37.5 -157t-124.5 -99q-3 0 -33 -6q-16 0 -16 16zM109 -168v31q0 2 4 7t15 5t43 17.5t42 74.5q7 27 -2 33q-8 6 -19.5 3
t-43.5 -3t-70 34q-37 34 -37 87t35 90t93 37t101.5 -44.5t49 -124.5t-37.5 -157t-124 -100q-3 0 -33 -6q-16 0 -16 16z" />
    <glyph glyph-name="bullet" unicode="&#x2022;" horiz-adv-x="507" 
d="M82 716.5q0 71.5 50 122t122 50.5t122 -50.5t50 -122t-50 -121.5t-122 -50t-122 50t-50 121.5z" />
    <glyph glyph-name="ellipsis" unicode="&#x2026;" horiz-adv-x="1024" 
d="M721 116.5q0 53.5 39 92.5t92 39t92 -39t39 -92.5t-39 -92t-92 -38.5t-92 38.5t-39 92zM381 116.5q0 53.5 39 92.5t92 39t92 -39t39 -92.5t-39 -92t-92 -38.5t-92 38.5t-39 92zM41 116.5q0 53.5 39 92.5t92 39t92 -39t39 -92.5t-39 -92t-92 -38.5t-92 38.5t-39 92z" />
    <glyph glyph-name="fraction" unicode="&#x2044;" horiz-adv-x="598" 
d="M23 0q-29 0 -21 27l426 1380q8 27 37 27h110q12 0 18.5 -9.5t2.5 -19.5l-426 -1378q-8 -27 -37 -27h-110z" />
    <glyph glyph-name="Euro" unicode="&#x20ac;" horiz-adv-x="825" 
d="M504 1180q0 20 -14.5 34.5t-34.5 14.5h-17q-20 0 -34.5 -14.5t-14.5 -34.5v-258h193q16 0 16 -17v-98q0 -16 -16 -16h-193v-66h193q16 0 16 -16v-99q0 -16 -16 -16h-193v-340q0 -20 14.5 -34.5t34.5 -14.5h17q20 0 34.5 14t14.5 35v205q0 29 26 20l187 -24q27 -8 26 -37
v-174q0 -107 -75.5 -182.5t-182.5 -75.5h-77q-106 0 -182 74.5t-76 183.5v350h-52q-16 0 -16 16v99q0 16 16 16h52v66h-52q-16 0 -16 16v98q0 16 16 17h52v268q0 107 75.5 182.5t182.5 75.5h77q108 0 183 -76.5t75 -181.5v-82q0 -29 -26 -37l-187 -29q-27 -8 -26 21v117z
" />
    <glyph glyph-name="trademark" unicode="&#x2122;" horiz-adv-x="550" 
d="M219 1434q8 0 8 -9v-59q0 -8 -8 -8h-47v-314q0 -8 -8 -8h-60q-8 0 -8 8v314h-47q-8 0 -8 8v59q0 8 8 9h170zM502 1434q8 0 8 -9v-381q0 -8 -10 -8h-62q-10 0 -10 8v177l-43 -168q-4 -6 -6 0l-43 168v-177q0 -8 -8 -8h-64q-8 0 -8 8v381q0 8 8 9h58q6 0 10 -9l51 -204
l51 204q0 8 10 9h58z" />
    <glyph glyph-name="minus" unicode="&#x2212;" horiz-adv-x="897" 
d="M90 643q-29 0 -29 29v155q0 29 29 29h717q29 0 29 -29v-155q0 -29 -29 -29h-717z" />
    <glyph glyph-name="glyph81" horiz-adv-x="1980" 
 />
    </font>
</defs>
</svg>
